<mxfile host="app.diagrams.net" modified="2024-04-08T02:39:44.122Z" agent="Mozilla/5.0 (Macintosh; Intel Mac OS X 10_15_7) AppleWebKit/537.36 (KHTML, like Gecko) Chrome/123.0.0.0 Safari/537.36" etag="x6AHwk44w4g9lAvvKRkT" version="24.2.0" type="github">
  <diagram name="第 1 页" id="VMBC8vOwCnFI4T1hJNYy">
    <mxGraphModel dx="1242" dy="819" grid="1" gridSize="10" guides="1" tooltips="1" connect="1" arrows="1" fold="1" page="1" pageScale="1" pageWidth="827" pageHeight="1169" math="0" shadow="0">
      <root>
        <mxCell id="0" />
        <mxCell id="1" parent="0" />
        <mxCell id="81G_Vp6k0Rup5mjlCdx5-4" value="" style="edgeStyle=orthogonalEdgeStyle;rounded=0;orthogonalLoop=1;jettySize=auto;html=1;" edge="1" parent="1" source="81G_Vp6k0Rup5mjlCdx5-2" target="81G_Vp6k0Rup5mjlCdx5-3">
          <mxGeometry relative="1" as="geometry" />
        </mxCell>
        <mxCell id="81G_Vp6k0Rup5mjlCdx5-2" value="遇到问题" style="strokeWidth=2;html=1;shape=mxgraph.flowchart.start_2;whiteSpace=wrap;" vertex="1" parent="1">
          <mxGeometry x="150" y="80" width="100" height="100" as="geometry" />
        </mxCell>
        <mxCell id="81G_Vp6k0Rup5mjlCdx5-8" value="" style="edgeStyle=orthogonalEdgeStyle;rounded=0;orthogonalLoop=1;jettySize=auto;html=1;" edge="1" parent="1" source="81G_Vp6k0Rup5mjlCdx5-3" target="81G_Vp6k0Rup5mjlCdx5-7">
          <mxGeometry relative="1" as="geometry" />
        </mxCell>
        <mxCell id="81G_Vp6k0Rup5mjlCdx5-3" value="使用知识和工具分析" style="whiteSpace=wrap;html=1;strokeWidth=2;" vertex="1" parent="1">
          <mxGeometry x="140" y="220" width="120" height="60" as="geometry" />
        </mxCell>
        <mxCell id="81G_Vp6k0Rup5mjlCdx5-10" value="" style="edgeStyle=orthogonalEdgeStyle;rounded=0;orthogonalLoop=1;jettySize=auto;html=1;" edge="1" parent="1" source="81G_Vp6k0Rup5mjlCdx5-7" target="81G_Vp6k0Rup5mjlCdx5-9">
          <mxGeometry relative="1" as="geometry" />
        </mxCell>
        <mxCell id="81G_Vp6k0Rup5mjlCdx5-7" value="找到问题所在" style="whiteSpace=wrap;html=1;strokeWidth=2;" vertex="1" parent="1">
          <mxGeometry x="140" y="320" width="120" height="60" as="geometry" />
        </mxCell>
        <mxCell id="81G_Vp6k0Rup5mjlCdx5-12" value="" style="edgeStyle=orthogonalEdgeStyle;rounded=0;orthogonalLoop=1;jettySize=auto;html=1;" edge="1" parent="1" source="81G_Vp6k0Rup5mjlCdx5-9" target="81G_Vp6k0Rup5mjlCdx5-11">
          <mxGeometry relative="1" as="geometry" />
        </mxCell>
        <mxCell id="81G_Vp6k0Rup5mjlCdx5-9" value="提出解决方案" style="whiteSpace=wrap;html=1;strokeWidth=2;" vertex="1" parent="1">
          <mxGeometry x="140" y="420" width="120" height="60" as="geometry" />
        </mxCell>
        <mxCell id="81G_Vp6k0Rup5mjlCdx5-11" value="问题解决" style="ellipse;whiteSpace=wrap;html=1;strokeWidth=2;" vertex="1" parent="1">
          <mxGeometry x="160" y="520" width="80" height="80" as="geometry" />
        </mxCell>
      </root>
    </mxGraphModel>
  </diagram>
</mxfile>
